<svg xmlns="http://www.w3.org/2000/svg" xmlns:xlink="http://www.w3.org/1999/xlink" width="342" height="127" viewBox="0 0 342 127">
  <defs>
    <rect id="download-plugin-button-b" width="230" height="63" x="56" y="32" rx="8"/>
    <filter id="download-plugin-button-a" width="113%" height="147.6%" x="-6.5%" y="-19%" filterUnits="objectBoundingBox">
      <feOffset dy="2" in="SourceAlpha" result="shadowOffsetOuter1"/>
      <feGaussianBlur in="shadowOffsetOuter1" result="shadowBlurOuter1" stdDeviation="4"/>
      <feColorMatrix in="shadowBlurOuter1" result="shadowMatrixOuter1" values="0 0 0 0 0.258823529   0 0 0 0 0.258823529   0 0 0 0 0.258823529  0 0 0 0.32 0"/>
      <feOffset dy="1" in="SourceAlpha" result="shadowOffsetOuter2"/>
      <feGaussianBlur in="shadowOffsetOuter2" result="shadowBlurOuter2" stdDeviation="1"/>
      <feColorMatrix in="shadowBlurOuter2" result="shadowMatrixOuter2" values="0 0 0 0 0.258823529   0 0 0 0 0.258823529   0 0 0 0 0.258823529  0 0 0 0.4 0"/>
      <feMerge>
        <feMergeNode in="shadowMatrixOuter1"/>
        <feMergeNode in="shadowMatrixOuter2"/>
      </feMerge>
    </filter>
  </defs>
  <g fill="none" fill-rule="evenodd">
    <use fill="#000" filter="url(#download-plugin-button-a)" xlink:href="#download-plugin-button-b"/>
    <use fill="#6F70CF" xlink:href="#download-plugin-button-b"/>
    <path fill="#FFF" d="M90.1280001,56.304 L94.3280001,56.304 C96.7280121,56.304 98.5999933,56.9519935 99.9440001,58.248 C101.288007,59.5440065 101.96,61.487987 101.96,64.08 C101.96,65.3760065 101.788002,66.519995 101.444,67.512 C101.099998,68.504005 100.604003,69.3319967 99.9560001,69.996 C99.3079968,70.6600033 98.5240047,71.1599983 97.6040001,71.496 C96.6839955,71.8320017 95.6400059,72 94.4720001,72 L90.1280001,72 L90.1280001,56.304 Z M94.1360001,69.744 C95.7360081,69.744 96.9639958,69.2840046 97.8200001,68.364 C98.6760043,67.4439954 99.1040001,66.0160097 99.1040001,64.08 C99.1040001,62.1599904 98.6720044,60.7600044 97.8080001,59.88 C96.9439957,58.9999956 95.720008,58.56 94.1360001,58.56 L92.9120001,58.56 L92.9120001,69.744 L94.1360001,69.744 Z M103.38,66.12 C103.38,65.1439951 103.531999,64.2720038 103.836,63.504 C104.140002,62.7359962 104.551997,62.0880026 105.072,61.56 C105.592003,61.0319974 106.187997,60.6280014 106.86,60.348 C107.532003,60.0679986 108.235996,59.928 108.972,59.928 C109.708004,59.928 110.415997,60.0679986 111.096,60.348 C111.776003,60.6280014 112.371997,61.0319974 112.884,61.56 C113.396003,62.0880026 113.807998,62.7359962 114.12,63.504 C114.432002,64.2720038 114.588,65.1439951 114.588,66.12 C114.588,67.0960049 114.432002,67.9679962 114.12,68.736 C113.807998,69.5040038 113.396003,70.1519974 112.884,70.68 C112.371997,71.2080026 111.776003,71.6079986 111.096,71.88 C110.415997,72.1520014 109.708004,72.288 108.972,72.288 C108.235996,72.288 107.532003,72.1520014 106.86,71.88 C106.187997,71.6079986 105.592003,71.2080026 105.072,70.68 C104.551997,70.1519974 104.140002,69.5040038 103.836,68.736 C103.531999,67.9679962 103.38,67.0960049 103.38,66.12 Z M106.212,66.12 C106.212,67.3040059 106.455998,68.2519964 106.944,68.964 C107.432002,69.6760036 108.107996,70.032 108.972,70.032 C109.836004,70.032 110.515998,69.6760036 111.012,68.964 C111.508003,68.2519964 111.756,67.3040059 111.756,66.12 C111.756,64.919994 111.508003,63.9640036 111.012,63.252 C110.515998,62.5399964 109.836004,62.184 108.972,62.184 C108.107996,62.184 107.432002,62.5399964 106.944,63.252 C106.455998,63.9640036 106.212,64.919994 106.212,66.12 Z M115.264,60.216 L118.048,60.216 L119.464,66.336 C119.592001,66.8960028 119.7,67.4559972 119.788,68.016 C119.876,68.5760028 119.975999,69.1439971 120.088,69.72 L120.184,69.72 C120.296001,69.1439971 120.411999,68.5760028 120.532,68.016 C120.652001,67.4559972 120.783999,66.8960028 120.928,66.336 L122.464,60.216 L124.984,60.216 L126.544,66.336 C126.688001,66.8960028 126.823999,67.4559972 126.952,68.016 C127.080001,68.5760028 127.207999,69.1439971 127.336,69.72 L127.432,69.72 C127.544001,69.1439971 127.648,68.5760028 127.744,68.016 C127.840001,67.4559972 127.943999,66.8960028 128.056,66.336 L129.472,60.216 L132.064,60.216 L129.064,72 L125.776,72 L124.408,66.504 C124.279999,65.9439972 124.160001,65.3880028 124.048,64.836 C123.935999,64.2839972 123.816001,63.6960031 123.688,63.072 L123.592,63.072 C123.479999,63.6960031 123.368001,64.2879972 123.256,64.848 C123.143999,65.4080028 123.024001,65.9679972 122.896,66.528 L121.552,72 L118.384,72 L115.264,60.216 Z M133.652,60.216 L135.932,60.216 L136.124,61.8 L136.22,61.8 C136.748003,61.2879974 137.319997,60.8480018 137.936,60.48 C138.552003,60.1119982 139.267996,59.928 140.084,59.928 C141.348006,59.928 142.267997,60.331996 142.844,61.14 C143.420003,61.948004 143.708,63.1039925 143.708,64.608 L143.708,72 L140.948,72 L140.948,64.968 C140.948,63.9919951 140.804001,63.304002 140.516,62.904 C140.227999,62.503998 139.756003,62.304 139.1,62.304 C138.587997,62.304 138.136002,62.4279988 137.744,62.676 C137.351998,62.9240012 136.908003,63.2879976 136.412,63.768 L136.412,72 L133.652,72 L133.652,60.216 Z M146.352,55.056 L149.112,55.056 L149.112,69.12 C149.112,69.4560017 149.175999,69.6919993 149.304,69.828 C149.432001,69.9640007 149.567999,70.032 149.712,70.032 L149.892,70.032 C149.948,70.032 150.031999,70.0160002 150.144,69.984 L150.504,72.048 C150.135998,72.2080008 149.648003,72.288 149.04,72.288 C148.047995,72.288 147.352002,71.992003 146.952,71.4 C146.551998,70.807997 146.352,70.0000051 146.352,68.976 L146.352,55.056 Z M151.348,66.12 C151.348,65.1439951 151.499998,64.2720038 151.804,63.504 C152.108002,62.7359962 152.519997,62.0880026 153.04,61.56 C153.560003,61.0319974 154.155997,60.6280014 154.828,60.348 C155.500003,60.0679986 156.203996,59.928 156.94,59.928 C157.676004,59.928 158.383997,60.0679986 159.064,60.348 C159.744003,60.6280014 160.339997,61.0319974 160.852,61.56 C161.364003,62.0880026 161.775998,62.7359962 162.088,63.504 C162.400002,64.2720038 162.556,65.1439951 162.556,66.12 C162.556,67.0960049 162.400002,67.9679962 162.088,68.736 C161.775998,69.5040038 161.364003,70.1519974 160.852,70.68 C160.339997,71.2080026 159.744003,71.6079986 159.064,71.88 C158.383997,72.1520014 157.676004,72.288 156.94,72.288 C156.203996,72.288 155.500003,72.1520014 154.828,71.88 C154.155997,71.6079986 153.560003,71.2080026 153.04,70.68 C152.519997,70.1519974 152.108002,69.5040038 151.804,68.736 C151.499998,67.9679962 151.348,67.0960049 151.348,66.12 Z M154.18,66.12 C154.18,67.3040059 154.423998,68.2519964 154.912,68.964 C155.400002,69.6760036 156.075996,70.032 156.94,70.032 C157.804004,70.032 158.483998,69.6760036 158.98,68.964 C159.476002,68.2519964 159.724,67.3040059 159.724,66.12 C159.724,64.919994 159.476002,63.9640036 158.98,63.252 C158.483998,62.5399964 157.804004,62.184 156.94,62.184 C156.075996,62.184 155.400002,62.5399964 154.912,63.252 C154.423998,63.9640036 154.18,64.919994 154.18,66.12 Z M163.76,68.832 C163.76,67.5679937 164.311994,66.5920034 165.416,65.904 C166.520006,65.2159966 168.279988,64.7360014 170.696,64.464 C170.696,64.1599985 170.656,63.8680014 170.576,63.588 C170.496,63.3079986 170.372001,63.0600011 170.204,62.844 C170.035999,62.6279989 169.820001,62.4600006 169.556,62.34 C169.291999,62.2199994 168.960002,62.16 168.56,62.16 C167.967997,62.16 167.396003,62.2719989 166.844,62.496 C166.291997,62.7200011 165.760003,62.9919984 165.248,63.312 L164.24,61.464 C164.896003,61.0479979 165.627996,60.6880015 166.436,60.384 C167.244004,60.0799985 168.119995,59.928 169.064,59.928 C170.552007,59.928 171.655996,60.3639956 172.376,61.236 C173.096004,62.1080044 173.456,63.3679918 173.456,65.016 L173.456,72 L171.2,72 L170.984,70.704 L170.912,70.704 C170.383997,71.1520022 169.820003,71.5279985 169.22,71.832 C168.619997,72.1360015 167.968004,72.288 167.264,72.288 C166.223995,72.288 165.380003,71.9720032 164.732,71.34 C164.083997,70.7079968 163.76,69.8720052 163.76,68.832 Z M166.448,68.616 C166.448,69.1440026 166.603998,69.5279988 166.916,69.768 C167.228002,70.0080012 167.631998,70.128 168.128,70.128 C168.608002,70.128 169.047998,70.0160011 169.448,69.792 C169.848002,69.5679989 170.263998,69.2480021 170.696,68.832 L170.696,66.192 C169.895996,66.2880005 169.224003,66.4159992 168.68,66.576 C168.135997,66.7360008 167.700002,66.915999 167.372,67.116 C167.043998,67.316001 166.808001,67.5439987 166.664,67.8 C166.519999,68.0560013 166.448,68.3279986 166.448,68.616 Z M175.356,66.12 C175.356,65.1599952 175.495999,64.2960038 175.776,63.528 C176.056001,62.7599962 176.427998,62.1120026 176.892,61.584 C177.356002,61.0559974 177.887997,60.6480014 178.488,60.36 C179.088003,60.0719986 179.707997,59.928 180.348,59.928 C181.020003,59.928 181.587998,60.0439988 182.052,60.276 C182.516002,60.5080012 182.979998,60.823998 183.444,61.224 L183.348,59.328 L183.348,55.056 L186.108,55.056 L186.108,72 L183.828,72 L183.636,70.728 L183.54,70.728 C183.107998,71.1600022 182.604003,71.5279985 182.028,71.832 C181.451997,72.1360015 180.844003,72.288 180.204,72.288 C178.715993,72.288 177.536004,71.7480054 176.664,70.668 C175.791996,69.5879946 175.356,68.0720098 175.356,66.12 Z M178.212,66.096 C178.212,67.3760064 178.439998,68.3479967 178.896,69.012 C179.352002,69.6760033 180.011996,70.008 180.876,70.008 C181.756004,70.008 182.579996,69.5680044 183.348,68.688 L183.348,63.192 C182.931998,62.8239982 182.528002,62.5680007 182.136,62.424 C181.743998,62.2799993 181.348002,62.208 180.948,62.208 C180.179996,62.208 179.532003,62.5439966 179.004,63.216 C178.475997,63.8880034 178.212,64.8479938 178.212,66.096 Z M193.292,56.304 L198.572,56.304 C199.436004,56.304 200.231996,56.3839992 200.96,56.544 C201.688004,56.7040008 202.315997,56.9759981 202.844,57.36 C203.372003,57.7440019 203.787998,58.2439969 204.092,58.86 C204.396002,59.4760031 204.548,60.2399954 204.548,61.152 C204.548,62.0160043 204.396002,62.7679968 204.092,63.408 C203.787998,64.0480032 203.368003,64.5799979 202.832,65.004 C202.295997,65.4280021 201.664004,65.739999 200.936,65.94 C200.207996,66.140001 199.420004,66.24 198.572,66.24 L196.076,66.24 L196.076,72 L193.292,72 L193.292,56.304 Z M198.356,64.008 C200.660012,64.008 201.812,63.0560095 201.812,61.152 C201.812,60.159995 201.524003,59.4760019 200.948,59.1 C200.371997,58.7239981 199.508006,58.536 198.356,58.536 L196.076,58.536 L196.076,64.008 L198.356,64.008 Z M206.52,55.056 L209.28,55.056 L209.28,69.12 C209.28,69.4560017 209.343999,69.6919993 209.472,69.828 C209.600001,69.9640007 209.735999,70.032 209.88,70.032 L210.06,70.032 C210.116,70.032 210.199999,70.0160002 210.312,69.984 L210.672,72.048 C210.303998,72.2080008 209.816003,72.288 209.208,72.288 C208.215995,72.288 207.520002,71.992003 207.12,71.4 C206.719998,70.807997 206.52,70.0000051 206.52,68.976 L206.52,55.056 Z M212.164,60.216 L214.924,60.216 L214.924,67.248 C214.924,68.2240049 215.067999,68.911998 215.356,69.312 C215.644001,69.712002 216.107997,69.912 216.748,69.912 C217.260003,69.912 217.711998,69.7840013 218.104,69.528 C218.496002,69.2719987 218.915998,68.8560029 219.364,68.28 L219.364,60.216 L222.124,60.216 L222.124,72 L219.868,72 L219.652,70.272 L219.58,70.272 C219.067997,70.880003 218.512003,71.3679982 217.912,71.736 C217.311997,72.1040018 216.604004,72.288 215.788,72.288 C214.523994,72.288 213.604003,71.884004 213.028,71.076 C212.451997,70.267996 212.164,69.1120075 212.164,67.608 L212.164,60.216 Z M226.4,73.728 C226.4,74.2560026 226.667997,74.6679985 227.204,74.964 C227.740003,75.2600015 228.479995,75.408 229.424,75.408 C230.384005,75.408 231.155997,75.2200019 231.74,74.844 C232.324003,74.4679981 232.616,74.0240026 232.616,73.512 C232.616,73.0479977 232.436002,72.7360008 232.076,72.576 C231.715998,72.4159992 231.200003,72.336 230.528,72.336 L228.92,72.336 C228.279997,72.336 227.744002,72.2800006 227.312,72.168 C226.703997,72.6320023 226.4,73.1519971 226.4,73.728 Z M224.096,74.136 C224.096,73.6399975 224.239999,73.1800021 224.528,72.756 C224.816001,72.3319979 225.231997,71.9520017 225.776,71.616 L225.776,71.52 C225.471998,71.327999 225.220001,71.0720016 225.02,70.752 C224.819999,70.4319984 224.72,70.0320024 224.72,69.552 C224.72,69.0879977 224.851999,68.6680019 225.116,68.292 C225.380001,67.9159981 225.679998,67.6080012 226.016,67.368 L226.016,67.272 C225.615998,66.9679985 225.260002,66.5480027 224.948,66.012 C224.635998,65.4759973 224.48,64.8560035 224.48,64.152 C224.48,63.4799966 224.607999,62.8800026 224.864,62.352 C225.120001,61.8239974 225.459998,61.3800018 225.884,61.02 C226.308002,60.6599982 226.799997,60.3880009 227.36,60.204 C227.920003,60.0199991 228.511997,59.928 229.136,59.928 C229.456002,59.928 229.763998,59.9559997 230.06,60.012 C230.356001,60.0680003 230.623999,60.1359996 230.864,60.216 L235.088,60.216 L235.088,62.256 L232.928,62.256 C233.120001,62.4800011 233.279999,62.7639983 233.408,63.108 C233.536001,63.4520017 233.6,63.8319979 233.6,64.248 C233.6,64.9040033 233.484001,65.4799975 233.252,65.976 C233.019999,66.4720025 232.704002,66.8879983 232.304,67.224 C231.903998,67.5600017 231.432003,67.8159991 230.888,67.992 C230.343997,68.1680009 229.760003,68.256 229.136,68.256 C228.879999,68.256 228.616001,68.2320002 228.344,68.184 C228.071999,68.1359998 227.800001,68.0560006 227.528,67.944 C227.351999,68.1040008 227.212,68.2639992 227.108,68.424 C227.003999,68.5840008 226.952,68.7999986 226.952,69.072 C226.952,69.4080017 227.091999,69.671999 227.372,69.864 C227.652001,70.056001 228.151996,70.152 228.872,70.152 L230.96,70.152 C232.384007,70.152 233.459996,70.3799977 234.188,70.836 C234.916004,71.2920023 235.28,72.0319949 235.28,73.056 C235.28,73.6320029 235.132001,74.1759974 234.836,74.688 C234.539998,75.2000026 234.120003,75.6399982 233.576,76.008 C233.031997,76.3760018 232.372004,76.6679989 231.596,76.884 C230.819996,77.1000011 229.952005,77.208 228.992,77.208 C228.287996,77.208 227.636003,77.1440006 227.036,77.016 C226.435997,76.8879994 225.920002,76.6960013 225.488,76.44 C225.055998,76.1839987 224.716001,75.8640019 224.468,75.48 C224.219999,75.0959981 224.096,74.6480026 224.096,74.136 Z M229.136,66.528 C229.696003,66.528 230.175998,66.324002 230.576,65.916 C230.976002,65.507998 231.176,64.9200038 231.176,64.152 C231.176,63.4159963 230.980002,62.844002 230.588,62.436 C230.195998,62.027998 229.712003,61.824 229.136,61.824 C228.559997,61.824 228.072002,62.023998 227.672,62.424 C227.271998,62.824002 227.072,63.3999962 227.072,64.152 C227.072,64.9200038 227.271998,65.507998 227.672,65.916 C228.072002,66.324002 228.559997,66.528 229.136,66.528 Z M238.02,58.152 C237.523997,58.152 237.116002,58.0080014 236.796,57.72 C236.475998,57.4319986 236.316,57.0560023 236.316,56.592 C236.316,56.1279977 236.475998,55.7480015 236.796,55.452 C237.116002,55.1559985 237.523997,55.008 238.02,55.008 C238.516002,55.008 238.923998,55.1559985 239.244,55.452 C239.564002,55.7480015 239.724,56.1279977 239.724,56.592 C239.724,57.0560023 239.564002,57.4319986 239.244,57.72 C238.923998,58.0080014 238.516002,58.152 238.02,58.152 Z M236.628,60.216 L239.388,60.216 L239.388,72 L236.628,72 L236.628,60.216 Z M242.176,60.216 L244.456,60.216 L244.648,61.8 L244.744,61.8 C245.272003,61.2879974 245.843997,60.8480018 246.46,60.48 C247.076003,60.1119982 247.791996,59.928 248.608,59.928 C249.872006,59.928 250.791997,60.331996 251.368,61.14 C251.944003,61.948004 252.232,63.1039925 252.232,64.608 L252.232,72 L249.472,72 L249.472,64.968 C249.472,63.9919951 249.328001,63.304002 249.04,62.904 C248.751998,62.503998 248.280003,62.304 247.624,62.304 C247.111997,62.304 246.660002,62.4279988 246.268,62.676 C245.875998,62.9240012 245.432002,63.2879976 244.936,63.768 L244.936,72 L242.176,72 L242.176,60.216 Z"/>
  </g>
</svg>
