<svg xmlns="http://www.w3.org/2000/svg" xmlns:xlink="http://www.w3.org/1999/xlink" width="888" height="508" viewBox="0 0 888 508">
  <defs>
    <text id="sketch-user-flows-logo-button-b" fill="#33D9B2" font-family="SourceSansPro-Bold, Source Sans Pro" font-size="36" font-weight="bold" letter-spacing="-.9">
      <tspan x="150" y="98">User</tspan>
    </text>
    <filter id="sketch-user-flows-logo-button-a" width="105.8%" height="108.9%" x="-1.4%" y="-2.2%" filterUnits="objectBoundingBox">
      <feOffset dx="2" dy="2" in="SourceAlpha" result="shadowOffsetOuter1"/>
      <feColorMatrix in="shadowOffsetOuter1" values="0 0 0 0 0.203921569   0 0 0 0 0.674509804   0 0 0 0 0.878431373  0 0 0 0.32 0"/>
    </filter>
    <text id="sketch-user-flows-logo-button-d" fill="#33D9B2" font-family="SourceSansPro-Bold, Source Sans Pro" font-size="36" font-weight="bold" letter-spacing="-.9">
      <tspan x="279" y="98">Flows</tspan>
    </text>
    <filter id="sketch-user-flows-logo-button-c" width="104.5%" height="108.9%" x="-1.1%" y="-2.2%" filterUnits="objectBoundingBox">
      <feOffset dx="2" dy="2" in="SourceAlpha" result="shadowOffsetOuter1"/>
      <feColorMatrix in="shadowOffsetOuter1" values="0 0 0 0 0.203921569   0 0 0 0 0.850980392   0 0 0 0 0.698039216  0 0 0 0.32 0"/>
    </filter>
    <filter id="sketch-user-flows-logo-button-e" width="107.8%" height="117.8%" x="-2%" y="-6.7%" filterUnits="objectBoundingBox">
      <feOffset dx="2" dy="2" in="SourceAlpha" result="shadowOffsetOuter1"/>
      <feColorMatrix in="shadowOffsetOuter1" result="shadowMatrixOuter1" values="0 0 0 0 1   0 0 0 0 0.321568627   0 0 0 0 0.321568627  0 0 0 0.32 0"/>
      <feMerge>
        <feMergeNode in="shadowMatrixOuter1"/>
        <feMergeNode in="SourceGraphic"/>
      </feMerge>
    </filter>
    <rect id="sketch-user-flows-logo-button-g" width="230" height="63" rx="8"/>
    <filter id="sketch-user-flows-logo-button-f" width="113%" height="147.6%" x="-6.5%" y="-19%" filterUnits="objectBoundingBox">
      <feOffset dy="2" in="SourceAlpha" result="shadowOffsetOuter1"/>
      <feGaussianBlur in="shadowOffsetOuter1" result="shadowBlurOuter1" stdDeviation="4"/>
      <feColorMatrix in="shadowBlurOuter1" result="shadowMatrixOuter1" values="0 0 0 0 0.258823529   0 0 0 0 0.258823529   0 0 0 0 0.258823529  0 0 0 0.32 0"/>
      <feOffset dy="1" in="SourceAlpha" result="shadowOffsetOuter2"/>
      <feGaussianBlur in="shadowOffsetOuter2" result="shadowBlurOuter2" stdDeviation="1"/>
      <feColorMatrix in="shadowBlurOuter2" result="shadowMatrixOuter2" values="0 0 0 0 0.258823529   0 0 0 0 0.258823529   0 0 0 0 0.258823529  0 0 0 0.4 0"/>
      <feMerge>
        <feMergeNode in="shadowMatrixOuter1"/>
        <feMergeNode in="shadowMatrixOuter2"/>
      </feMerge>
    </filter>
    <path id="sketch-user-flows-logo-button-h" d="M888,1.15463195e-13 L876,1.15463195e-13 C866.666667,30.6666667 862,75.6666667 862,135 C862,222.781577 876,267 876,370 C876,438.666667 868.666667,484.666667 854,508 L888,508 L888,1.15463195e-13 Z"/>
    <polygon id="sketch-user-flows-logo-button-i" points="0 0 84 112 0 378"/>
    <path id="sketch-user-flows-logo-button-j" d="M385,0 L661,0 C617.933297,17.3333333 573.266631,26 527,26 C480.733369,26 433.400036,17.3333333 385,0 Z"/>
    <path id="sketch-user-flows-logo-button-k" d="M107,508 L359,508 C317,494.666667 275,488 233,488 C191,488 149,494.666667 107,508 Z"/>
  </defs>
  <g fill="none" fill-rule="evenodd">
    <g transform="translate(258 112)">
      <rect width="96" height="180" fill="#FF5252" opacity=".05"/>
      <rect width="96" height="180" x="138" fill="#34ACE0" opacity=".07"/>
      <rect width="96" height="180" x="276" fill="#33D9B2" opacity=".07"/>
      <g opacity=".9" transform="translate(102 87)">
        <path stroke="#424242" stroke-linecap="round" stroke-linejoin="round" stroke-width="3" d="M1.5,6 L24,6"/>
        <path fill="#424242" fill-rule="nonzero" d="M24,3.75272668 C24,2.51594602 25.4125782,1.8105671 26.401237,2.55365542 L29.3930953,4.80237368 C30.191446,5.40242406 30.191446,6.60046582 29.3930953,7.20051619 L26.401237,9.44923446 C25.4125782,10.1923228 24,9.48694385 24,8.2501632 L24,3.75272668 Z"/>
      </g>
      <g opacity=".9" transform="translate(240 87)">
        <path stroke="#424242" stroke-linecap="round" stroke-linejoin="round" stroke-width="3" d="M1.5,6 L24,6"/>
        <path fill="#424242" fill-rule="nonzero" d="M24,3.75272668 C24,2.51594602 25.4125782,1.8105671 26.401237,2.55365542 L29.3930953,4.80237368 C30.191446,5.40242406 30.191446,6.60046582 29.3930953,7.20051619 L26.401237,9.44923446 C25.4125782,10.1923228 24,9.48694385 24,8.2501632 L24,3.75272668 Z"/>
      </g>
      <g stroke="#34ACE0" stroke-linecap="round" stroke-linejoin="round" stroke-width="3" transform="translate(138)">
        <rect width="99" height="183" x="-1.5" y="-1.5" rx="6"/>
        <path d="M36 6L60 6M30 174L66 174M12 6L18 6M78 6L84 6"/>
      </g>
      <g fill="#33D9B2">
        <use filter="url(#sketch-user-flows-logo-button-a)" xlink:href="#sketch-user-flows-logo-button-b"/>
        <use xlink:href="#sketch-user-flows-logo-button-b"/>
      </g>
      <text fill="#34ACE0" font-family="SourceSansPro-Bold, Source Sans Pro" font-size="36" font-weight="bold" letter-spacing="-.9">
        <tspan x="150" y="98">User</tspan>
      </text>
      <g stroke="#34D9B2" stroke-linecap="round" stroke-linejoin="round" stroke-width="3" transform="translate(276)">
        <rect width="99" height="183" x="-1.5" y="-1.5" rx="6"/>
        <path d="M36 6L60 6M30 174L66 174M12 6L18 6M78 6L84 6"/>
      </g>
      <g fill="#33D9B2">
        <use filter="url(#sketch-user-flows-logo-button-c)" xlink:href="#sketch-user-flows-logo-button-d"/>
        <use xlink:href="#sketch-user-flows-logo-button-d"/>
      </g>
      <text fill="#34D9B2" font-family="SourceSansPro-Bold, Source Sans Pro" font-size="36" font-weight="bold" letter-spacing="-.9">
        <tspan x="279" y="98">Flows</tspan>
      </text>
      <g stroke="#FF5252" stroke-linecap="round" stroke-linejoin="round" stroke-width="3">
        <rect width="99" height="183" x="-1.5" y="-1.5" rx="6"/>
        <path d="M36 6L60 6M30 174L66 174M12 6L18 6M78 6L84 6"/>
      </g>
      <g stroke="#FF5252" stroke-linecap="round" stroke-linejoin="round" stroke-width="3" filter="url(#sketch-user-flows-logo-button-e)" transform="translate(22.5 69)">
        <polyline points="12 4.5 15 18 26.25 0 37.5 18 40.5 4.5"/>
        <polygon points="26.264 45 49.5 19.5 40.189 3.061 26.264 0 12.34 3.061 1.5 19.5"/>
        <polyline points="48 19.5 37.5 18 26.264 45 15 18 3 19.5"/>
        <path d="M15,18 L37.5,18"/>
      </g>
      <g stroke="#FF5252" stroke-linecap="round" stroke-linejoin="round" stroke-width="3" transform="translate(22.5 69)">
        <polyline points="12 4.5 15 18 26.25 0 37.5 18 40.5 4.5"/>
        <polygon points="26.264 45 49.5 19.5 40.189 3.061 26.264 0 12.34 3.061 1.5 19.5"/>
        <polyline points="48 19.5 37.5 18 26.264 45 15 18 3 19.5"/>
        <path d="M15,18 L37.5,18"/>
      </g>
    </g>
    <g transform="translate(329 396)">
      <use fill="#000" filter="url(#sketch-user-flows-logo-button-f)" xlink:href="#sketch-user-flows-logo-button-g"/>
      <use fill="#6F70CF" xlink:href="#sketch-user-flows-logo-button-g"/>
      <text fill="#FFF" font-family="SourceSansPro-Semibold, Source Sans Pro" font-size="24" font-weight="500" letter-spacing="-.74">
        <tspan x="32.136" y="40">Download Plugi</tspan> <tspan x="184.424" y="40">n</tspan>
      </text>
    </g>
    <g stroke-linecap="round" stroke-linejoin="round">
      <use fill="#33D9B2" fill-opacity=".07" xlink:href="#sketch-user-flows-logo-button-h"/>
      <path stroke="#34D9B2" stroke-width="3" d="M889.5,-1.5 L889.5,509.5 L851.285426,509.5 L852.730045,507.201743 C867.202208,484.177847 874.5,438.400788 874.5,370 C874.5,326.8259 872.572341,297.44994 867.507486,246.942761 C867.360503,245.477033 866.834987,240.247897 866.72827,239.184295 C866.424208,236.153849 866.18584,233.765167 865.957459,231.455118 C862.109692,192.535268 860.5,167.18487 860.5,135 C860.5,75.5315838 865.180529,30.397913 874.564989,-0.436742424 L874.888589,-1.5 L889.5,-1.5 Z"/>
    </g>
    <text fill="#424242" font-family="SourceSansPro-Regular, Source Sans Pro" font-size="18" letter-spacing="-.555" opacity=".8">
      <tspan x="220.881" y="338">Communicate your designs with User Flows: auto-generate User </tspan> <tspan x="228.915" y="362">Flows and keep your designs in sync with your Reqfire project.</tspan>
    </text>
    <g stroke-linecap="round" stroke-linejoin="round">
      <use fill="#FF5252" fill-opacity=".07" xlink:href="#sketch-user-flows-logo-button-i"/>
      <path stroke="#FF5252" stroke-width="3" d="M-1.5,-4.5 L85.6624922,111.716656 L-1.5,387.731215 L-1.5,-4.5 Z"/>
    </g>
    <g stroke-linecap="round" stroke-linejoin="round">
      <use fill="#34ACE0" fill-opacity=".07" xlink:href="#sketch-user-flows-logo-button-j"/>
      <path stroke="#34ACE0" stroke-width="3" d="M376.362576,-1.5 L668.744385,-1.5 L661.560055,1.39152358 C618.315481,18.7964463 573.458704,27.5 527,27.5 C480.556124,27.5 433.052454,18.802145 384.494264,1.41217237 L376.362576,-1.5 Z"/>
    </g>
    <g stroke-linecap="round" stroke-linejoin="round">
      <use fill="#34ACE0" fill-opacity=".07" xlink:href="#sketch-user-flows-logo-button-k"/>
      <path stroke="#34ACE0" stroke-width="3" d="M106.546131,506.570314 C148.691166,493.190938 190.844073,486.5 233,486.5 C275.155927,486.5 317.308834,493.190938 359.453869,506.570314 L368.682381,509.5 L97.3176191,509.5 L106.546131,506.570314 Z"/>
    </g>
  </g>
</svg>
